<svg width="49" height="49" viewBox="0 0 49 49" fill="none" xmlns="http://www.w3.org/2000/svg">
<path d="M37.5833 12.1667H33.5C33.5 7.65458 29.8454 4 25.3333 4C20.8212 4 17.1667 7.65458 17.1667 12.1667H13.0833C10.8375 12.1667 9 14.0042 9 16.25V40.75C9 42.9958 10.8375 44.8333 13.0833 44.8333H37.5833C39.8292 44.8333 41.6667 42.9958 41.6667 40.75V16.25C41.6667 14.0042 39.8292 12.1667 37.5833 12.1667ZM25.3333 8.08333C27.5792 8.08333 29.4167 9.92083 29.4167 12.1667H21.25C21.25 9.92083 23.0875 8.08333 25.3333 8.08333ZM37.5833 40.75H13.0833V16.25H17.1667V20.3333C17.1667 21.4563 18.0854 22.375 19.2083 22.375C20.3312 22.375 21.25 21.4563 21.25 20.3333V16.25H29.4167V20.3333C29.4167 21.4563 30.3354 22.375 31.4583 22.375C32.5812 22.375 33.5 21.4563 33.5 20.3333V16.25H37.5833V40.75Z" fill="#50514F"/>
</svg>
